<svg viewBox="0 0 100 100" xmlns="http://www.w3.org/2000/svg"><line x1="4.0" y1="40.0" x2="50.0" y2="20.0" stroke="red" stroke-width="0.9227910244487798"/><line x1="4.0" y1="40.0" x2="50.0" y2="40.0" stroke="green" stroke-width="0.5417503130016598"/><line x1="4.0" y1="40.0" x2="50.0" y2="60.0" stroke="red" stroke-width="0.9704930104721137"/><line x1="4.0" y1="40.0" x2="50.0" y2="80.0" stroke="red" stroke-width="1.010719720915202"/><line x1="4.0" y1="60.0" x2="50.0" y2="20.0" stroke="red" stroke-width="0.12123599534711613"/><line x1="4.0" y1="60.0" x2="50.0" y2="40.0" stroke="green" stroke-width="1.0"/><line x1="4.0" y1="60.0" x2="50.0" y2="60.0" stroke="green" stroke-width="0.46785352092170923"/><line x1="4.0" y1="60.0" x2="50.0" y2="80.0" stroke="green" stroke-width="0.7141456621765871"/><line x1="50.0" y1="20.0" x2="96.0" y2="50.0" stroke="green" stroke-width="0.3127537767457643"/><line x1="50.0" y1="40.0" x2="96.0" y2="50.0" stroke="green" stroke-width="0.7302532303370528"/><line x1="50.0" y1="60.0" x2="96.0" y2="50.0" stroke="red" stroke-width="0.0733783242007865"/><line x1="50.0" y1="80.0" x2="96.0" y2="50.0" stroke="green" stroke-width="0.2793896656052214"/><circle cx="4.0" cy="40.0" r="3"/><circle cx="4.0" cy="60.0" r="3"/><circle cx="50.0" cy="20.0" r="3"/><circle cx="50.0" cy="40.0" r="3"/><circle cx="50.0" cy="60.0" r="3"/><circle cx="50.0" cy="80.0" r="3"/><circle cx="96.0" cy="50.0" r="3"/></svg>