<svg viewBox="0 0 100 100" xmlns="http://www.w3.org/2000/svg"><line x1="0.0" y1="40.0" x2="50.0" y2="20.0" stroke="green" stroke-width="0.8322849615200598"/><line x1="0.0" y1="40.0" x2="50.0" y2="40.0" stroke="green" stroke-width="0.8539951998935534"/><line x1="0.0" y1="40.0" x2="50.0" y2="60.0" stroke="red" stroke-width="0.741069969956332"/><line x1="0.0" y1="40.0" x2="50.0" y2="80.0" stroke="green" stroke-width="1.0"/><line x1="0.0" y1="60.0" x2="50.0" y2="20.0" stroke="green" stroke-width="0.9460325220817911"/><line x1="0.0" y1="60.0" x2="50.0" y2="40.0" stroke="red" stroke-width="0.9298558484585407"/><line x1="0.0" y1="60.0" x2="50.0" y2="60.0" stroke="red" stroke-width="1.021902635799227"/><line x1="0.0" y1="60.0" x2="50.0" y2="80.0" stroke="green" stroke-width="0.8531419710069639"/><line x1="50.0" y1="20.0" x2="100.0" y2="50.0" stroke="green" stroke-width="0.32710702256974705"/><line x1="50.0" y1="40.0" x2="100.0" y2="50.0" stroke="red" stroke-width="0.03788427267538814"/><line x1="50.0" y1="60.0" x2="100.0" y2="50.0" stroke="red" stroke-width="0.060431630974092515"/><line x1="50.0" y1="80.0" x2="100.0" y2="50.0" stroke="green" stroke-width="0.5231587252369087"/><circle cx="0.0" cy="40.0" r="3"/><circle cx="0.0" cy="60.0" r="3"/><circle cx="50.0" cy="20.0" r="3"/><circle cx="50.0" cy="40.0" r="3"/><circle cx="50.0" cy="60.0" r="3"/><circle cx="50.0" cy="80.0" r="3"/><circle cx="100.0" cy="50.0" r="3"/></svg>