<svg viewBox="0 0 100 100" xmlns="http://www.w3.org/2000/svg"><line x1="0.0" y1="40.0" x2="50.0" y2="20.0" stroke="red" stroke-width="0.8571428571428571"/><line x1="0.0" y1="40.0" x2="50.0" y2="40.0" stroke="green" stroke-width="0.45714285714285713"/><line x1="0.0" y1="40.0" x2="50.0" y2="60.0" stroke="red" stroke-width="0.37142857142857144"/><line x1="0.0" y1="40.0" x2="50.0" y2="80.0" stroke="green" stroke-width="0.22857142857142856"/><line x1="0.0" y1="60.0" x2="50.0" y2="20.0" stroke="green" stroke-width="0.8571428571428571"/><line x1="0.0" y1="60.0" x2="50.0" y2="40.0" stroke="green" stroke-width="0.5714285714285714"/><line x1="0.0" y1="60.0" x2="50.0" y2="60.0" stroke="green" stroke-width="0.6071428571428571"/><line x1="0.0" y1="60.0" x2="50.0" y2="80.0" stroke="red" stroke-width="0.5"/><line x1="50.0" y1="20.0" x2="100.0" y2="50.0" stroke="red" stroke-width="0.8571428571428571"/><line x1="50.0" y1="40.0" x2="100.0" y2="50.0" stroke="red" stroke-width="0.14285714285714285"/><line x1="50.0" y1="60.0" x2="100.0" y2="50.0" stroke="green" stroke-width="1.0"/><line x1="50.0" y1="80.0" x2="100.0" y2="50.0" stroke="green" stroke-width="0.22857142857142856"/><circle cx="0.0" cy="40.0" r="3"/><circle cx="0.0" cy="60.0" r="3"/><circle cx="50.0" cy="20.0" r="3"/><circle cx="50.0" cy="40.0" r="3"/><circle cx="50.0" cy="60.0" r="3"/><circle cx="50.0" cy="80.0" r="3"/><circle cx="100.0" cy="50.0" r="3"/></svg>