<svg viewBox="0 0 100 100" xmlns="http://www.w3.org/2000/svg"><line x1="0.0" y1="30.0" x2="50.0" y2="20.0" stroke="red" stroke-width="-0.47058823529411764"/><line x1="0.0" y1="30.0" x2="50.0" y2="40.0" stroke="green" stroke-width="1.0"/><line x1="0.0" y1="30.0" x2="50.0" y2="60.0" stroke="red" stroke-width="0.0"/><line x1="0.0" y1="30.0" x2="50.0" y2="80.0" stroke="green" stroke-width="0.43529411764705883"/><line x1="0.0" y1="50.0" x2="50.0" y2="20.0" stroke="green" stroke-width="0.5490196078431373"/><line x1="0.0" y1="50.0" x2="50.0" y2="40.0" stroke="red" stroke-width="-0.25098039215686274"/><line x1="0.0" y1="50.0" x2="50.0" y2="60.0" stroke="green" stroke-width="0.38823529411764707"/><line x1="0.0" y1="50.0" x2="50.0" y2="80.0" stroke="green" stroke-width="0.19607843137254902"/><line x1="0.0" y1="70.0" x2="50.0" y2="20.0" stroke="green" stroke-width="0.25098039215686274"/><line x1="0.0" y1="70.0" x2="50.0" y2="40.0" stroke="green" stroke-width="0.47058823529411764"/><line x1="0.0" y1="70.0" x2="50.0" y2="60.0" stroke="red" stroke-width="-0.12549019607843137"/><line x1="0.0" y1="70.0" x2="50.0" y2="80.0" stroke="red" stroke-width="-0.9019607843137255"/><line x1="50.0" y1="20.0" x2="100.0" y2="50.0" stroke="green" stroke-width="0.47058823529411764"/><line x1="50.0" y1="40.0" x2="100.0" y2="50.0" stroke="red" stroke-width="-0.38823529411764707"/><line x1="50.0" y1="60.0" x2="100.0" y2="50.0" stroke="green" stroke-width="0.38823529411764707"/><line x1="50.0" y1="80.0" x2="100.0" y2="50.0" stroke="green" stroke-width="0.12549019607843137"/><circle cx="0.0" cy="30.0" r="3"/><circle cx="0.0" cy="50.0" r="3"/><circle cx="0.0" cy="70.0" r="3"/><circle cx="50.0" cy="20.0" r="3"/><circle cx="50.0" cy="40.0" r="3"/><circle cx="50.0" cy="60.0" r="3"/><circle cx="50.0" cy="80.0" r="3"/><circle cx="100.0" cy="50.0" r="3"/></svg>